<?xml version="1.0" encoding="UTF-8"?>
<!-- Created with Inkscape (http://www.inkscape.org/) -->
<svg id="SVGRoot" width="16px" height="16px" version="1.1" viewBox="0 0 16 16" xmlns="http://www.w3.org/2000/svg" xmlns:cc="http://creativecommons.org/ns#" xmlns:dc="http://purl.org/dc/elements/1.1/" xmlns:rdf="http://www.w3.org/1999/02/22-rdf-syntax-ns#">
 <metadata>
  <rdf:RDF>
   <cc:Work rdf:about="">
    <dc:format>image/svg+xml</dc:format>
    <dc:type rdf:resource="http://purl.org/dc/dcmitype/StillImage"/>
    <dc:title/>
   </cc:Work>
  </rdf:RDF>
 </metadata>
 <g fill-opacity=".8">
  <path d="m3 1v2h-1-1v11 1h11 1v-2h1 1v-11-1h-11-1zm1 1h10v10h-1v-8-1h-9v-1zm-2 2h10v10h-10v-10z" fill="#0c0c0d"/>
  <path d="m11 9-8 4v-8z" fill="#0c0c0d"/>
  <path d="m4 2v1h9v9h1v-9-1h-10zm-2 2v10h10v-10h-10zm1 1 8 4-8 4v-8z" fill="#f9f9fa"/>
 </g>
</svg>
